<?xml version="1.0" encoding="UTF-8"?>
<svg id="Layer_2" data-name="Layer 2" xmlns="http://www.w3.org/2000/svg" viewBox="0 0 356 120.75">
  <defs>
    <style>
      .cls-1 {
        fill: #ed7d31;
        stroke-width: 0px;
      }
    </style>
  </defs>
  <g id="Layer_1-2" data-name="Layer 1">
    <g>
      <path class="cls-1" d="M14.79,91.55c5.49,0,9.09,2.62,11.37,5.87l-4.06,2.28c-1.48-2.11-4.14-3.76-7.31-3.76-5.58,0-9.72,4.27-9.72,10.19s4.14,10.23,9.72,10.23c2.87,0,5.41-1.35,6.68-2.54v-4.4h-8.41v-4.35h13.35v10.57c-2.79,3.09-6.72,5.11-11.62,5.11-8.16,0-14.79-5.79-14.79-14.62s6.64-14.58,14.79-14.58Z"/>
      <path class="cls-1" d="M50.21,120.2l-6.25-10.52h-4.9v10.52h-4.94v-28.19h12.38c5.58,0,9.21,3.63,9.21,8.83s-3.3,7.73-6.68,8.28l6.89,11.07h-5.71ZM45.81,96.37h-6.76v8.96h6.76c2.79,0,4.82-1.78,4.82-4.48s-2.03-4.48-4.82-4.48Z"/>
      <path class="cls-1" d="M83.13,120.2l-2.07-5.41h-13.35l-2.07,5.41h-5.41l11.07-28.19h6.17l11.07,28.19h-5.41ZM74.38,96.2l-5.28,14.24h10.57l-5.28-14.24Z"/>
      <path class="cls-1" d="M94.15,120.2v-28.19h12.38c5.92,0,9.21,4.06,9.21,8.83s-3.34,8.83-9.21,8.83h-7.44v10.52h-4.94ZM105.86,96.37h-6.76v8.96h6.76c2.79,0,4.82-1.78,4.82-4.48s-2.03-4.48-4.82-4.48Z"/>
      <path class="cls-1" d="M141.99,120.2v-12.3h-14.67v12.3h-4.94v-28.19h4.94v11.54h14.67v-11.54h4.94v28.19h-4.94Z"/>
      <path class="cls-1" d="M155.47,120.2v-28.19h4.94v28.19h-4.94Z"/>
      <path class="cls-1" d="M167.69,106.13c0-8.66,6.47-14.58,14.58-14.58,5.92,0,9.43,2.96,11.54,6.34l-4.23,2.16c-1.35-2.32-4.06-4.1-7.31-4.1-5.37,0-9.51,4.27-9.51,10.19s4.14,10.19,9.51,10.19c3.25,0,5.96-1.73,7.31-4.1l4.23,2.16c-2.16,3.38-5.62,6.34-11.54,6.34-8.11,0-14.58-5.92-14.58-14.58Z"/>
      <path class="cls-1" d="M201.24,112.43c1.94,2.07,4.99,3.89,8.92,3.89s5.66-1.99,5.66-3.85c0-2.54-3-3.3-6.42-4.18-4.61-1.14-10.02-2.49-10.02-8.45,0-4.65,4.1-8.24,10.27-8.24,4.4,0,7.95,1.39,10.57,3.93l-2.83,3.68c-2.2-2.2-5.2-3.21-8.16-3.21s-4.78,1.39-4.78,3.51,2.87,2.92,6.21,3.76c4.65,1.18,10.19,2.62,10.19,8.75,0,4.69-3.3,8.71-10.9,8.71-5.2,0-8.96-1.82-11.45-4.48l2.75-3.8Z"/>
    </g>
    <g>
      <path class="cls-1" d="M55.68,72.9l-2.75-9.09h-27.05l-2.75,9.09H0L25.99,2.43h26.83l25.99,70.47h-23.14ZM39.41,21.23l-8.03,24.83h16.06l-8.03-24.83Z"/>
      <path class="cls-1" d="M88.96,72.9V2.43h42.79c14.58,0,20.92,9.72,20.92,17.96,0,8.77-5.18,14.68-12.04,16.16,7.61,1.16,13.42,8.13,13.42,17.22,0,9.82-6.66,19.12-20.81,19.12h-44.27ZM110.3,28.63h16.48c2.22,0,4.23-2.01,4.23-4.54s-2.01-4.33-4.23-4.33h-16.48v8.87ZM110.3,55.57h17.11c3.06,0,4.97-2.11,4.97-4.75s-1.9-4.86-4.97-4.86h-17.11v9.61Z"/>
      <path class="cls-1" d="M165.13,36.45c0-21.76,16.69-36.45,38.24-36.45,19.02,0,28.31,10.78,32.54,20.5l-18.38,8.56c-1.8-5.49-7.29-10.25-14.16-10.25-9.72,0-16.59,7.82-16.59,17.64s6.87,17.64,16.59,17.64c6.87,0,12.36-4.75,14.16-10.25l18.38,8.45c-4.12,9.4-13.52,20.6-32.54,20.6-21.55,0-38.24-14.79-38.24-36.45Z"/>
      <path class="cls-1" d="M248.91,72.9V2.43h31.48c22.19,0,38.67,12.68,38.67,35.18s-16.48,35.29-38.56,35.29h-31.59ZM270.25,54.3h10.14c10.67,0,17.01-7.82,17.01-16.69,0-9.51-5.49-16.59-16.9-16.59h-10.25v33.28Z"/>
      <circle class="cls-1" cx="341.21" cy="58.1" r="14.79"/>
    </g>
  </g>
</svg>